<?xml version="1.0" encoding="utf-8"?>
<svg viewBox="4.884 9.362 43.549 45.31" xmlns="http://www.w3.org/2000/svg">
  <path style="fill: rgb(17, 17, 17);" transform="matrix(0.558659, 0, 0, 0.566379, -216.874619, -41.354706)" d="M 433.158 89.583 A 40 40 0 1 1 433.158 169.507 A 41.324 41.324 0 0 0 433.158 89.583 Z"/>
  <path style="fill: rgb(17, 17, 17);" transform="matrix(0.558659, 0, 0, 0.566379, -233.616623, -41.35471)" d="M 433.158 89.583 A 40 40 0 1 1 433.158 169.507 A 41.324 41.324 0 0 0 433.158 89.583 Z"/>
  <path style="fill: rgb(17, 17, 17);" transform="matrix(-0.284065, 0, 0, -0.337026, 139.787033, 75.738991)" d="M 433.158 89.583 A 40 40 0 1 1 433.158 169.507 A 41.324 41.324 0 0 0 433.158 89.583 Z"/>
</svg>
