<svg version="1.1" xmlns="http://www.w3.org/2000/svg" viewBox="0 0 531.1265383017665 138.1277899415731" width="531.1265383017665" height="138.1277899415731">
  <!-- svg-source:excalidraw -->
  
  <defs>
    <style class="style-fonts">
      @font-face {
        font-family: "Virgil";
        src: url("https://excalidraw.com/Virgil.woff2");
      }
      @font-face {
        font-family: "Cascadia";
        src: url("https://excalidraw.com/Cascadia.woff2");
      }
    </style>
  </defs>
  <g stroke-linecap="round" transform="translate(86.10600131505294 29.336250055809558) rotate(0 137.89970918906693 34.966423205781794)"><path d="M20.95 -1.81 L260.19 -1.57 L269.55 -1.5 L272.13 7.07 L279.16 52.61 L267.82 68.77 L255.82 67.62 L12.69 73.07 L10.62 67.09 L1.87 63.99 L0.87 17.28 L6.36 6.7 L21.33 3.44" stroke="none" stroke-width="0" fill="#fab005"></path><path d="M17.48 0 M17.48 0 C79.5 -1.94, 146.19 -0.84, 258.32 0 M258.32 0 C268.1 -1.24, 277.62 4.38, 275.8 17.48 M275.8 17.48 C275.29 33.6, 272.67 45.49, 275.8 52.45 M275.8 52.45 C276.48 67.04, 273.82 69.45, 258.32 69.93 M258.32 69.93 C192.75 69.64, 130.12 71.22, 17.48 69.93 M17.48 69.93 C7.2 67.06, -2.66 64.8, 0 52.45 M0 52.45 C-0.47 47.27, -0.24 31.63, 0 17.48 M0 17.48 C0.69 7.04, 4.92 -0.28, 17.48 0" stroke="#e67700" stroke-width="1.5" fill="none" stroke-dasharray="1.5 7"></path></g><g stroke-linecap="round" transform="translate(10 10) rotate(0 84.14401112153894 58.351123290313495)"><path d="M29.18 0 M29.18 0 C57.76 -2.94, 82.61 -1.75, 139.11 0 M29.18 0 C72.8 -0.62, 113.97 0.28, 139.11 0 M139.11 0 C161.97 3.79, 167.9 10.5, 168.29 29.18 M139.11 0 C163.04 1, 168.06 12.01, 168.29 29.18 M168.29 29.18 C167.85 47.61, 169.99 69.96, 168.29 87.53 M168.29 29.18 C168.4 43.68, 170.24 58.7, 168.29 87.53 M168.29 87.53 C172.12 108.33, 155.35 115.96, 139.11 116.7 M168.29 87.53 C170.91 103.11, 158.94 117.48, 139.11 116.7 M139.11 116.7 C96.51 114.92, 56.02 113.11, 29.18 116.7 M139.11 116.7 C104.41 116.79, 67.01 118.57, 29.18 116.7 M29.18 116.7 C8.16 113.75, -1.72 105.99, 0 87.53 M29.18 116.7 C14.26 115.84, -2.96 107.77, 0 87.53 M0 87.53 C-2.25 65.08, -3.04 50.33, 0 29.18 M0 87.53 C-0.11 66.84, -0.2 47.75, 0 29.18 M0 29.18 C-0.28 12.87, 5.92 0.46, 29.18 0 M0 29.18 C1.25 10.59, 14.21 -3.18, 29.18 0" stroke="#000000" stroke-width="1" fill="none"></path></g><g stroke-linecap="round" transform="translate(98.35849055753602 45.705289804134566) rotate(0 32 21.638178370856732)"><path d="M10.82 0 M10.82 0 C17.22 -2.7, 28.76 3.51, 53.18 0 M10.82 0 C18.11 -1.43, 27.55 1.43, 53.18 0 M53.18 0 C64.19 -0.39, 64.77 7.5, 64 10.82 M53.18 0 C61.39 -0.23, 66.29 6.28, 64 10.82 M64 10.82 C61.91 19.97, 63.35 26.33, 64 32.46 M64 10.82 C63.35 20.16, 63.24 29.6, 64 32.46 M64 32.46 C65.35 36.46, 59.65 45.56, 53.18 43.28 M64 32.46 C60.13 40.05, 61.17 46.65, 53.18 43.28 M53.18 43.28 C34.88 41.93, 16.28 43.82, 10.82 43.28 M53.18 43.28 C42.33 42.23, 34.71 42.79, 10.82 43.28 M10.82 43.28 C0.65 41.56, -0.99 43.61, 0 32.46 M10.82 43.28 C2.74 40.32, 0.8 41.07, 0 32.46 M0 32.46 C-3.14 23.16, 1.39 22.33, 0 10.82 M0 32.46 C-0.12 26.61, 1.03 23.01, 0 10.82 M0 10.82 C3.14 -0.2, 4.06 1.09, 10.82 0 M0 10.82 C0.86 8.1, 0.42 3.56, 10.82 0" stroke="#000000" stroke-width="1" fill="none"></path></g><g stroke-linecap="round" transform="translate(352.83851605868836 11.425543360946108) rotate(0 84.14401112153905 58.351123290313495)"><path d="M29.18 0 M29.18 0 C54.51 -0.59, 88.63 -1.77, 139.11 0 M139.11 0 C157.42 1.3, 165.79 7.41, 168.29 29.18 M168.29 29.18 C168.9 46.45, 173.18 63.04, 168.29 87.53 M168.29 87.53 C168.09 108.97, 160.89 120.55, 139.11 116.7 M139.11 116.7 C97.27 114.33, 52.62 118.94, 29.18 116.7 M29.18 116.7 C9.42 114.83, -1.24 108.79, 0 87.53 M0 87.53 C-4.33 71.39, 1.16 53.39, 0 29.18 M0 29.18 C0.33 10.4, 12.66 3.85, 29.18 0" stroke="#495057" stroke-width="1.5" fill="none" stroke-dasharray="1.5 7"></path></g><g transform="translate(105.06137096188718 55.3434681749913) rotate(0 24.5 12.000000000000002)"><text x="24.5" y="9" font-family="Virgil, Segoe UI Emoji" font-size="9.246587389647123px" fill="#000000" text-anchor="middle" style="white-space: pre;" direction="ltr">A </text><text x="24.5" y="21" font-family="Virgil, Segoe UI Emoji" font-size="9.246587389647123px" fill="#000000" text-anchor="middle" style="white-space: pre;" direction="ltr">Repository</text></g><g transform="translate(386.4825271802272 56.7766666512596) rotate(0 50.5 13)"><text x="50.5" y="18" font-family="Virgil, Segoe UI Emoji" font-size="20px" fill="#495057" text-anchor="middle" style="white-space: pre;" direction="ltr">Database</text></g><g stroke-linecap="round"><g transform="translate(160.93669743711712 68.4974282502838) rotate(0 94.53044133248977 0.1759378075655036)"><path d="M0 0 C73.91 0.14, 147.82 0.28, 189.06 0.35 M0 0 C75.12 0.14, 150.24 0.28, 189.06 0.35" stroke="#000000" stroke-width="1" fill="none"></path></g><g transform="translate(160.93669743711712 68.4974282502838) rotate(0 94.53044133248977 0.1759378075655036)"><path d="M160.85 10.56 C171.88 6.57, 182.91 2.58, 189.06 0.35 M160.85 10.56 C172.06 6.5, 183.27 2.45, 189.06 0.35" stroke="#000000" stroke-width="1" fill="none"></path></g><g transform="translate(160.93669743711712 68.4974282502838) rotate(0 94.53044133248977 0.1759378075655036)"><path d="M160.89 -9.96 C171.9 -5.93, 182.92 -1.9, 189.06 0.35 M160.89 -9.96 C172.08 -5.86, 183.28 -1.77, 189.06 0.35" stroke="#000000" stroke-width="1" fill="none"></path></g></g><g transform="translate(241.8646109614831 47.43688199145777) rotate(0 20 10.5)"><text x="0" y="15" font-family="Virgil, Segoe UI Emoji" font-size="16px" fill="#000000" text-anchor="start" style="white-space: pre;" direction="ltr">Uses</text></g><g transform="translate(24.421562337873866 60.84152479812843) rotate(0 17.526644108969094 7.601917926781763)"><text x="17.52664410896905" y="11.203835853563527" font-family="Virgil, Segoe UI Emoji" font-size="11.825205663882738px" fill="#e67700" text-anchor="middle" style="white-space: pre;" direction="ltr">TEST</text></g><g stroke-linecap="round"><g transform="translate(64.81509975828772 68.13166719371543) rotate(0 14.937244824411437 0.1962954154888621)"><path d="M0 0 C7.1 0.09, 14.2 0.19, 29.87 0.39 M0 0 C10.7 0.14, 21.4 0.28, 29.87 0.39" stroke="#000000" stroke-width="1" fill="none"></path></g><g transform="translate(64.81509975828772 68.13166719371543) rotate(0 14.937244824411437 0.1962954154888621)"><path d="M15.77 5.32 C19.12 4.15, 22.47 2.98, 29.87 0.39 M15.77 5.32 C20.82 3.55, 25.87 1.79, 29.87 0.39" stroke="#000000" stroke-width="1" fill="none"></path></g><g transform="translate(64.81509975828772 68.13166719371543) rotate(0 14.937244824411437 0.1962954154888621)"><path d="M15.91 -4.9 C19.22 -3.64, 22.54 -2.39, 29.87 0.39 M15.91 -4.9 C20.91 -3, 25.91 -1.11, 29.87 0.39" stroke="#000000" stroke-width="1" fill="none"></path></g></g></svg>
